# MagicaVoxel @ Ephtracy

# group
o 

# material
mtllib gdplayer.mtl
usemtl palette

# normals
vn -1 0 0
vn 1 0 0
vn 0 0 1
vn 0 0 -1
vn 0 -1 0
vn 0 1 0

# texcoords
vt 0.705078 0.5
vt 0.748047 0.5

# verts
v -2.2 0 1.9
v -2.2 0 -2.1
v -2.2 0.2 1.6
v -2.2 0.2 -1.8
v -2.2 3.7 1.6
v -2.2 3.7 -1.8
v -2.2 4 1.9
v -2.2 4 -2.1
v -0.7 1.4 0.3
v -0.7 1.4 -0.5
v -0.7 2.2 0.3
v -0.7 2.2 -0.5
v 1.5 0.2 1.9
v 1.5 0.2 1.8
v 1.5 0.2 -2
v 1.5 0.2 -2.1
v 1.5 3.7 -2
v 1.5 3.7 -2.1
v 1.5 3.8 1.9
v 1.5 3.8 1.8
v 1.7 0 1.8
v 1.7 0 -2
v 1.7 0.2 1.7
v 1.7 0.2 -1.8
v 1.7 3.7 1.7
v 1.7 3.7 -1.8
v 1.7 4 1.8
v 1.7 4 -2
v -2.1 0 1.8
v -2.1 0 -2
v -2.1 0.2 1.6
v -2.1 0.2 -1.8
v -2.1 3.7 1.6
v -2.1 3.7 -1.8
v -2.1 4 1.8
v -2.1 4 -2
v -2 0.2 1.9
v -2 0.2 1.8
v -2 3.8 1.9
v -2 3.8 1.8
v -1.9 0.2 -2
v -1.9 0.2 -2.1
v -1.9 3.7 -2
v -1.9 3.7 -2.1
v 0.1 1.4 0.3
v 0.1 1.4 -0.5
v 0.1 2.2 0.3
v 0.1 2.2 -0.5
v 1.8 0 1.9
v 1.8 0 -2.1
v 1.8 0.2 1.7
v 1.8 0.2 -1.8
v 1.8 3.7 1.7
v 1.8 3.7 -1.8
v 1.8 4 1.9
v 1.8 4 -2.1
v -2.2 0 1.9
v -2.2 4 1.9
v -2 0.2 1.9
v -2 3.8 1.9
v 1.5 0.2 1.9
v 1.5 3.8 1.9
v 1.8 0 1.9
v 1.8 4 1.9
v -0.7 1.4 0.3
v -0.7 2.2 0.3
v 0.1 1.4 0.3
v 0.1 2.2 0.3
v -2.2 0.2 -1.8
v -2.2 3.7 -1.8
v -2.1 0.2 -1.8
v -2.1 3.7 -1.8
v 1.7 0.2 -1.8
v 1.7 3.7 -1.8
v 1.8 0.2 -1.8
v 1.8 3.7 -1.8
v -2.1 0 -2
v -2.1 4 -2
v -1.9 0.2 -2
v -1.9 3.7 -2
v 1.5 0.2 -2
v 1.5 3.7 -2
v 1.7 0 -2
v 1.7 4 -2
v -2.1 0 1.8
v -2.1 4 1.8
v -2 0.2 1.8
v -2 3.8 1.8
v 1.5 0.2 1.8
v 1.5 3.8 1.8
v 1.7 0 1.8
v 1.7 4 1.8
v 1.7 0.2 1.7
v 1.7 3.7 1.7
v 1.8 0.2 1.7
v 1.8 3.7 1.7
v -2.2 0.2 1.6
v -2.2 3.7 1.6
v -2.1 0.2 1.6
v -2.1 3.7 1.6
v -0.7 1.4 -0.5
v -0.7 2.2 -0.5
v 0.1 1.4 -0.5
v 0.1 2.2 -0.5
v -2.2 0 -2.1
v -2.2 4 -2.1
v -1.9 0.2 -2.1
v -1.9 3.7 -2.1
v 1.5 0.2 -2.1
v 1.5 3.7 -2.1
v 1.8 0 -2.1
v 1.8 4 -2.1
v -2.2 0 1.9
v 1.8 0 1.9
v -2.1 0 1.8
v 1.7 0 1.8
v -2.1 0 -2
v 1.7 0 -2
v -2.2 0 -2.1
v 1.8 0 -2.1
v -0.7 1.4 0.3
v 0.1 1.4 0.3
v -0.7 1.4 -0.5
v 0.1 1.4 -0.5
v 1.7 3.7 1.7
v 1.8 3.7 1.7
v -2.2 3.7 1.6
v -2.1 3.7 1.6
v -2.2 3.7 -1.8
v -2.1 3.7 -1.8
v 1.7 3.7 -1.8
v 1.8 3.7 -1.8
v -1.9 3.7 -2
v 1.5 3.7 -2
v -1.9 3.7 -2.1
v 1.5 3.7 -2.1
v -2 3.8 1.9
v 1.5 3.8 1.9
v -2 3.8 1.8
v 1.5 3.8 1.8
v -2 0.2 1.9
v 1.5 0.2 1.9
v -2 0.2 1.8
v 1.5 0.2 1.8
v 1.7 0.2 1.7
v 1.8 0.2 1.7
v -2.2 0.2 1.6
v -2.1 0.2 1.6
v -2.2 0.2 -1.8
v -2.1 0.2 -1.8
v 1.7 0.2 -1.8
v 1.8 0.2 -1.8
v -1.9 0.2 -2
v 1.5 0.2 -2
v -1.9 0.2 -2.1
v 1.5 0.2 -2.1
v -0.7 2.2 0.3
v 0.1 2.2 0.3
v -0.7 2.2 -0.5
v 0.1 2.2 -0.5
v -2.2 4 1.9
v 1.8 4 1.9
v -2.1 4 1.8
v 1.7 4 1.8
v -2.1 4 -2
v 1.7 4 -2
v -2.2 4 -2.1
v 1.8 4 -2.1

# faces
f 3/2/1 2/2/1 1/2/1
f 4/2/1 2/2/1 3/2/1
f 5/2/1 3/2/1 1/2/1
f 6/2/1 2/2/1 4/2/1
f 7/2/1 5/2/1 1/2/1
f 7/2/1 6/2/1 5/2/1
f 8/2/1 2/2/1 6/2/1
f 8/2/1 6/2/1 7/2/1
f 11/1/1 10/1/1 9/1/1
f 12/1/1 10/1/1 11/1/1
f 17/2/1 16/2/1 15/2/1
f 18/2/1 16/2/1 17/2/1
f 19/2/1 14/2/1 13/2/1
f 20/2/1 14/2/1 19/2/1
f 23/2/1 22/2/1 21/2/1
f 24/2/1 22/2/1 23/2/1
f 25/2/1 23/2/1 21/2/1
f 26/2/1 22/2/1 24/2/1
f 27/2/1 25/2/1 21/2/1
f 27/2/1 26/2/1 25/2/1
f 28/2/1 22/2/1 26/2/1
f 28/2/1 26/2/1 27/2/1
f 29/2/2 30/2/2 31/2/2
f 31/2/2 30/2/2 32/2/2
f 29/2/2 31/2/2 33/2/2
f 32/2/2 30/2/2 34/2/2
f 29/2/2 33/2/2 35/2/2
f 33/2/2 34/2/2 35/2/2
f 34/2/2 30/2/2 36/2/2
f 35/2/2 34/2/2 36/2/2
f 37/2/2 38/2/2 39/2/2
f 39/2/2 38/2/2 40/2/2
f 41/2/2 42/2/2 43/2/2
f 43/2/2 42/2/2 44/2/2
f 45/1/2 46/1/2 47/1/2
f 47/1/2 46/1/2 48/1/2
f 49/2/2 50/2/2 51/2/2
f 51/2/2 50/2/2 52/2/2
f 49/2/2 51/2/2 53/2/2
f 52/2/2 50/2/2 54/2/2
f 49/2/2 53/2/2 55/2/2
f 53/2/2 54/2/2 55/2/2
f 54/2/2 50/2/2 56/2/2
f 55/2/2 54/2/2 56/2/2
f 59/2/3 58/2/3 57/2/3
f 60/2/3 58/2/3 59/2/3
f 61/2/3 59/2/3 57/2/3
f 62/2/3 58/2/3 60/2/3
f 63/2/3 61/2/3 57/2/3
f 63/2/3 62/2/3 61/2/3
f 64/2/3 58/2/3 62/2/3
f 64/2/3 62/2/3 63/2/3
f 67/1/3 66/1/3 65/1/3
f 68/1/3 66/1/3 67/1/3
f 71/2/3 70/2/3 69/2/3
f 72/2/3 70/2/3 71/2/3
f 75/2/3 74/2/3 73/2/3
f 76/2/3 74/2/3 75/2/3
f 79/2/3 78/2/3 77/2/3
f 80/2/3 78/2/3 79/2/3
f 81/2/3 79/2/3 77/2/3
f 82/2/3 78/2/3 80/2/3
f 83/2/3 81/2/3 77/2/3
f 83/2/3 82/2/3 81/2/3
f 84/2/3 78/2/3 82/2/3
f 84/2/3 82/2/3 83/2/3
f 85/2/4 86/2/4 87/2/4
f 87/2/4 86/2/4 88/2/4
f 85/2/4 87/2/4 89/2/4
f 88/2/4 86/2/4 90/2/4
f 85/2/4 89/2/4 91/2/4
f 89/2/4 90/2/4 91/2/4
f 90/2/4 86/2/4 92/2/4
f 91/2/4 90/2/4 92/2/4
f 93/2/4 94/2/4 95/2/4
f 95/2/4 94/2/4 96/2/4
f 97/2/4 98/2/4 99/2/4
f 99/2/4 98/2/4 100/2/4
f 101/1/4 102/1/4 103/1/4
f 103/1/4 102/1/4 104/1/4
f 105/2/4 106/2/4 107/2/4
f 107/2/4 106/2/4 108/2/4
f 105/2/4 107/2/4 109/2/4
f 108/2/4 106/2/4 110/2/4
f 105/2/4 109/2/4 111/2/4
f 109/2/4 110/2/4 111/2/4
f 110/2/4 106/2/4 112/2/4
f 111/2/4 110/2/4 112/2/4
f 115/2/5 114/2/5 113/2/5
f 116/2/5 114/2/5 115/2/5
f 117/2/5 115/2/5 113/2/5
f 118/2/5 114/2/5 116/2/5
f 119/2/5 117/2/5 113/2/5
f 119/2/5 118/2/5 117/2/5
f 120/2/5 114/2/5 118/2/5
f 120/2/5 118/2/5 119/2/5
f 123/1/5 122/1/5 121/1/5
f 124/1/5 122/1/5 123/1/5
f 129/2/5 128/2/5 127/2/5
f 130/2/5 128/2/5 129/2/5
f 131/2/5 126/2/5 125/2/5
f 132/2/5 126/2/5 131/2/5
f 135/2/5 134/2/5 133/2/5
f 136/2/5 134/2/5 135/2/5
f 139/2/5 138/2/5 137/2/5
f 140/2/5 138/2/5 139/2/5
f 141/2/6 142/2/6 143/2/6
f 143/2/6 142/2/6 144/2/6
f 147/2/6 148/2/6 149/2/6
f 149/2/6 148/2/6 150/2/6
f 145/2/6 146/2/6 151/2/6
f 151/2/6 146/2/6 152/2/6
f 153/2/6 154/2/6 155/2/6
f 155/2/6 154/2/6 156/2/6
f 157/1/6 158/1/6 159/1/6
f 159/1/6 158/1/6 160/1/6
f 161/2/6 162/2/6 163/2/6
f 163/2/6 162/2/6 164/2/6
f 161/2/6 163/2/6 165/2/6
f 164/2/6 162/2/6 166/2/6
f 161/2/6 165/2/6 167/2/6
f 165/2/6 166/2/6 167/2/6
f 166/2/6 162/2/6 168/2/6
f 167/2/6 166/2/6 168/2/6
